<svg xmlns="http://www.w3.org/2000/svg" width="420.88" height="425.24">
    <path
        d="M261.38 342.6c10.88 4.98 22.08 12.02 38.82 20.21m-38.93-20.64c10.59 6.7 22.4 11.41 39.02 20.16M130.9 376.34c14.34-9.47 28.11-21.72 44.45-31.4m-43.87 31.9c10.64-8.7 21.42-15.56 44.57-34.04m1.87-3.87c2.48 21.75 7.98 33.02 11.25 71.2m-15.23-69.26c5.63 24.48 11.92 49.65 19.22 71.47m-.79 2.73c12.26-15.01 33.88-32.43 68.38-69.28m-68.5 68.3c25.07-27.85 47.37-52.15 65.1-69.23m1.88.68c-3.44 11.85 1 32.72-3.25 68.26m2.51-68.86c-1.39 23.62-1.78 50.53-.9 70.15M146.95 236.04c6.15 25.62 18.07 55.08 32.43 104.04m-31.5-106.43c5.6 23.03 12.21 45.76 27.45 108.94"
        stroke="#868e96" stroke-width="4" fill="none" stroke-linecap="round" />
    <path
        d="M148.27 236.38c38.78 33.47 72.8 60.94 110.5 105.78M148.23 235.85c33.04 31.09 65.39 62.14 115.3 104.78M155.98 240.1c58.99 13.36 111.85 34.7 165.73 49.13M151.8 237.35c47.4 15.46 97.65 29.2 171.15 52.4M246.83 74.26c17.6 22.1 37.78 47.22 78.28 93.07m-77.03-92.55c25.6 30.12 50.93 61.03 76.35 94.96"
        stroke="#868e96" stroke-width="4" fill="none" stroke-linecap="round" />
    <path d="M243.4 76.87A1095.7 1095.7 0 0 1 287 230.26M248.17 75.34a3723.69 3723.69 0 0 0 38.62 154.07"
        stroke="#868e96" stroke-width="4" fill="none" stroke-linecap="round" />
    <path
        d="M249.3 75.75c-34.75 51.67-62.24 97.47-101.62 151.1m97.56-148.6a6782.5 6782.5 0 0 1-96.98 149.1M98.44 172.08c31.72-14.94 66.76-31.9 116.16-55.61M99.13 169.93c24.7-12.83 55.06-23.94 117.02-52.4"
        stroke="#868e96" stroke-width="4" fill="none" stroke-linecap="round" />
    <path d="M98.1 170.05c20.3-19.2 37.08-42.85 78.39-93.01m-79.06 95.4c19.42-19.98 33.24-39.6 81.35-93.51"
        stroke="#868e96" stroke-width="4" fill="none" stroke-linecap="round" />
    <g fill-rule="evenodd" fill="none" stroke-linecap="round">
        <path
            d="M94.86 172.33s0 0 0 0m0 0s0 0 0 0m-55.68 87.7c27.22-31.68 52.57-54.62 67.04-78.46m-65.33 78.1c13.1-16.23 27.75-33.75 65.86-76.94M57 267.8c17.08-24.04 39.86-54.72 60.44-69.07m-62.1 68.43c13.25-14.85 23.05-30.36 60.1-71.85m-46.96 80.46c16.22-18.02 33.94-39.04 56.44-70.15m-56.99 70.73c16.86-19.53 32.18-40.57 57.76-69.36m-39.67 75.74c20.48-24.9 40.44-50.7 49.08-65.88M84.3 284.3c17.7-24.36 37.05-46.47 53.44-66.46M99.9 290.36c10.75-11.52 27.14-32.95 42.53-52.64m-44.2 54.2a1288.76 1288.76 0 0 1 43-49.4"
            stroke="#868e96" stroke-width="2" />
        <path
            d="M149.35 227.03c-12.75-17.4-28.08-27.04-52.33-58.16m49.22 62.15c-16.15-15.88-28.38-31.3-52.77-58.57m.08 1.76c-15.5 19.98-25.5 43.7-54.8 81.17m55.72-83.55C81.73 189.9 70.1 207.84 34.7 257.9m-.5-.6c22.41 12.86 48 26 73.14 41.91m-70.85-40.03c17.86 10.2 42.4 22.65 67.9 35.03m3.53.78c3.3-19.2 13.3-35.45 35.96-62.9m-40.35 63.72c16.65-21.27 29.08-37.92 44.1-64.82m-.5-1.3s0 0 0 0m0 0s0 0 0 0"
            stroke="#1e1e1e" stroke-width="4" />
    </g>
    <g fill-rule="evenodd" fill="none" stroke-linecap="round">
        <path
            d="M13.09 179.33s0 0 0 0m0 0s0 0 0 0m2.52 16.18c4.4-5.37 11.9-6.57 16.58-21.4m-14.05 23.43c2.66-3 8.9-8.15 19.06-19.96m-13.54 36.85c10.92-6.17 19.53-22.87 30.97-36.92m-31.8 39.86c11.92-14.73 22.84-27.43 36.55-41.59m-35.55 62.68c15.66-23.5 34.78-35.74 53.93-64.8M27.9 237.1c15.77-22.83 36.1-45.73 53.77-62.5M30.2 258.04c2.3-3.02 4.75-9.48 8.6-8.72m-7.27 7.62c2.1-4.47 4.76-8.55 8.7-9.15"
            stroke="#868e96" stroke-width="2" />
        <path
            d="M97.99 169.7c-24.7 7.66-50.4 2.72-85.71 12.73m80.4-8c-22.82 3.32-49.63 3.8-80.38 3.6m-.1 1.67c9.83 25.82 14.69 44.66 15.17 77.55m-15.21-78.08c5.55 22.61 10.26 45.47 19.98 76.55m-4.57.6c22.85-29.06 49.35-53.23 67.09-86.14M29.13 257.4c23.56-28.46 42.69-59.49 64.2-83.07m1.09-1.14s0 0 0 0m0 0s0 0 0 0"
            stroke="#1e1e1e" stroke-width="4" />
    </g>
    <g fill-rule="evenodd" fill="none" stroke-linecap="round">
        <path
            d="M38.66 90.94s0 0 0 0m0 0s0 0 0 0m-8.77 39.19c6.66-14.27 10.88-19.86 26.05-32.23m-26.59 27.96c7.41-8.82 15.51-16.91 25.81-28.24m-39.62 62.53c19.86-12.51 31.12-33.51 58.75-56.26m-58.33 59.33c13.61-16.21 28.73-30.48 56.47-62M23.6 182.22c19.76-29.14 40.8-44.7 68.01-77.3m-66.89 73.93c20.65-26.87 45.56-48.92 63.11-70.65M48.6 176.08c9.33-17.08 29.04-28.46 46.78-53.74M47.3 176.69c16.82-19.16 34.34-37.17 50.01-56.15m-23.25 50.72c6.61-8.76 11.9-17.05 23.72-25.64M71.4 174.7c9.22-8.48 16.6-21.24 28.3-31.15m-6.28 29.53a26.68 26.68 0 0 1 4.16-5.12m-3.44 5.63c1.62-1.8 2.47-3.06 4.37-4.05"
            stroke="#868e96" stroke-width="2" />
        <path
            d="M101.5 113.07C85.94 100.95 69 103.16 38.9 89.23m59.72 22.04c-23.5-7.45-44.83-15.7-59.88-21.03m3.8 3.64c-10.14 26.49-26.2 60.4-30.15 84.82m25.96-87.57c-8.77 25.7-14.29 49.62-24.7 88.09m-3.65-.17c30.24 2.5 53.82-6.07 89.07-3.66m-85.02 6.02c31.16-6.28 64.26-6.34 84.47-6.91m-4.79-4.61c1.98-12.4 5.42-35.67 3.1-63.88m2.03 68.83c-1.4-20.05-.45-39.9-1.62-64m1-1.23s0 0 0 0m0 0s0 0 0 0"
            stroke="#343a40" stroke-width="4" />
    </g>
    <g fill-rule="evenodd" fill="none" stroke-linecap="round">
        <path
            d="M41.03 90s0 0 0 0m0 0s0 0 0 0m17.27 2.46c8.67-12.3 26.52-27.57 61.46-67.55M58.82 93.6c16.6-17.91 33-36.42 61.09-71.34m-44.5 80.56c15.89-24.36 41.85-44.61 57.56-68.74M73.4 99.4c19.95-18.1 37.87-39.33 61.44-69.25M88.8 102.93c23.29-18.26 47.59-47.85 58.36-58.87m-57.6 60.24c24.43-20.68 42.1-43.94 55.42-60.05m-34.85 57.07c17.5-8.65 23.49-20.98 47.22-46.85m-44.58 47.84c10.6-9.18 18.17-17.8 43.05-47.55m-6.86 31.2c4.52-7.37 11.53-10.64 19.45-17.11m-20.66 21.92c2.99-7.62 10.12-12.25 19.5-24.22"
            stroke="#868e96" stroke-width="2" />
        <path
            d="M43.02 86.75c13.63-9.8 32.63-29.77 84-70.23m-87.55 73.8a1024.02 1024.02 0 0 1 85.9-70.87m2.3-1.42C138.2 37.87 157.78 54 175.76 74.8m-52.12-54.27c17.4 15.78 32.85 33.26 52.7 54.78m2.03 5.32c-24.33 2.44-45.23 16.94-73.56 24.39m70.6-29.4c-25.43 14.57-49.13 25.57-74.58 31.33m-2.94 4.2c-9.51-10.25-24.07-15.2-56.44-18.41m60.19 17.33c-12.85-3.31-28.52-7.44-60.31-18.3m-.3-1.77s0 0 0 0m0 0s0 0 0 0"
            stroke="#1e1e1e" stroke-width="4" />
    </g>
    <g fill-rule="evenodd" fill="none" stroke-linecap="round">
        <path
            d="M126.35 20.5s0 0 0 0m0 0s0 0 0 0m7.8 8.9c2.82 1.94 8.1-3.07 13.12-10.89m-8.85 13.84c1.9-4.52 6.07-7.85 8.46-11.78m-2.61 25.27c12.1-8.44 19.18-17.96 25.28-23.84m-20.53 22.11c2.87-2.92 7.38-10.78 21.77-26.27m-15.86 38.5c12.49-5.38 15.12-12.5 36.23-40.73m-32.31 41.65c9.14-10.39 17.37-20.93 34.26-39.53m-24.2 54.7C189.59 48.27 205 31.8 216.38 16.01m-45.05 53.86c10.74-13.83 23.83-28.88 41.55-51.75m-29.68 63.46c9.8-14.7 28.75-34.9 48.68-66.36m-50.91 63.81c13.18-13.5 28.45-31.34 55.45-60.6M191 88.4c12.7-9.32 28.05-24.28 63.56-72.25m-64.2 74.33c20.5-21.09 37.72-41.95 64.84-75.23m-56.13 85.56c23.24-22.76 47.05-40.45 81-84.77m-78.51 88.64c25.17-26.1 46.18-56.77 78.93-90.8m-66.26 102.01c.3-4.08 1.6-9.32 17.66-19.6m-19.2 18.22c6.55-2.63 9.23-8.79 17.85-16.67"
            stroke="#868e96" stroke-width="2" />
        <path
            d="M125.36 23.8c36.37 33.9 72.95 69.7 91.85 94.53M125.37 19.4c33.43 37.27 68.2 74.66 89.65 100.14m-3.92-1.25c28.48-39.17 55.23-78.34 76.1-103.44m-71.33 101.91C238.56 85.15 259.95 52.6 287 13.98m.36-1.6C243.46 21.9 200.53 17.4 128 23m158.02-6.49c-59.04-.14-121.24-1.3-161.31 2.04m1.63 1.94s0 0 0 0m0 0s0 0 0 0"
            stroke="#343a40" stroke-width="4" />
    </g>
    <g fill-rule="evenodd" fill="none" stroke-linecap="round">
        <path
            d="M292.2 13.36s0 0 0 0m0 0s0 0 0 0M257 80.69c11.34-13.58 22.19-24.7 43.94-55.34m-44.72 55.07c10.08-14.8 21.47-26.81 46.79-56.8M275.35 86.7c12.96-17.87 30.48-42.58 40.74-55.75m-42.6 53.09c10.68-13.81 23.3-26.77 45.77-52.3m-26.6 55.99c8.43-9.12 19.35-23.14 38-48.81M288.9 90.99c9-11.97 18.62-24.08 41.48-50.9M303 97.6c12.63-13.83 16.77-25.13 39.25-47.7m-37.31 45.9c8.89-10.3 18.39-17.87 36.9-43.4m-19.38 48.86c9.19-7.2 12.24-17.3 33.86-39.86m-31.95 37.79c11.54-13.34 21.4-27.86 32.02-40.07m-9.48 32.56c9.47-.41 13.29-7.74 23.3-19.17m-20.23 24.45c3.77-10.8 12.19-17.73 18-26.64"
            stroke="#868e96" stroke-width="2" />
        <path
            d="M245.78 74.38c21.4 2.56 40.3 12.5 90.55 24.86m-90.7-23.85c28.28 9.44 55.14 20.2 88.83 28.64m-1.85-2.8c12-7.48 24.46-12.03 47.5-25.06m-46.25 25.58a296.22 296.22 0 0 1 45.58-23.18m1.84 1.17c-32.13-32.2-68.42-50.9-86.11-68.03m85.56 67.15c-20.74-16.84-42.3-31.71-90.4-66.88m.26-1.98c-14.9 28.2-35.14 50.47-41.82 67.15m42.22-62.3c-14.88 23.92-31.3 44.58-46.12 61.43m.65-.15s0 0 0 0m0 0s0 0 0 0"
            stroke="#1e1e1e" stroke-width="4" />
    </g>
    <g fill-rule="evenodd" fill="none" stroke-linecap="round">
        <path
            d="M332.52 104.09s0 0 0 0m0 0s0 0 0 0m-4.59 30.74c13.26-14.43 23.7-31.2 38.38-46.64m-38.23 44c12.4-13.67 21.44-25.48 42.64-48.13m-47.95 81.09c18.52-27.53 35.06-46.8 60.06-72.1m-58.18 68.17c21.62-23.56 41.92-47.08 58.87-68.83m-36.07 70.66c18.83-23.63 33.7-45.62 41.55-50.04m-43.73 50.23c17.36-21.24 34.06-42.6 45.06-52.9m-17.59 45.76c5.07-12.18 16-22.38 21.62-29.37m-23.16 29.65c8.92-6.71 12.76-15.13 24.83-30.22m2.16 26.04c-.58-2.66 1.72-3.8 6.96-9.67m-7.53 8.53c.32-2.03 2.47-4 5.87-8.13"
            stroke="#868e96" stroke-width="2" />
        <path
            d="M335.21 100.62c-3.42 27.9-5.88 47.78-10.68 63.59m9.03-60.66c-2.79 17.64-3.74 32.58-10.62 60.8m.36-.4c26.81-3.41 53.08-9.81 83.84-12.97m-83.25 13.47c20.97-3.7 41.91-5.81 83.94-15.62m1.88-3.87c-8.33-8.83-12.63-28.61-32.3-66.74m28.32 68.67c-11.16-24.16-20.4-48.21-24.34-66.48m-.78 2.74c-14.68 4.36-19.34 8.35-45.48 23.49m45.35-24.47c-16.8 6.94-35.47 16.02-48.76 23.55m.8-1.63s0 0 0 0m0 0s0 0 0 0"
            stroke="#1e1e1e" stroke-width="4" />
    </g>
    <g fill-rule="evenodd" fill="none" stroke-linecap="round">
        <path
            d="M325.45 169.69s0 0 0 0m0 0s0 0 0 0m11.55 8.38c7.7-.88 11.13-7.1 14.6-15.25m-15.04 17.67c6.59-5.3 7.9-11.81 16.07-16.6m-2.35 28.45c6.15-12 16.39-22.85 27.4-35.2m-26.16 31.04c7.79-9.97 21.2-24.18 26.86-29.55m-15.01 37.12c13.88-16.36 28.17-31.02 42.46-42.75m-40.52 44.87c11.78-13.43 20.74-26.26 40.96-44.28m-26.23 52.37c3.46-9.31 8.25-10.74 27.26-31.43m-30.76 33.55c10.45-14.31 20.24-23.44 28.95-33.57m-18.11 41.8c4.69-3.77 6.75-6.37 10.54-11.27m-7.36 13.5c1.2-4.1 4.56-8.68 7.2-11.67"
            stroke="#868e96" stroke-width="2" />
        <path
            d="M327.93 170.44c19.67 10.94 35.09 25.68 66.02 52.48m-68.21-51.28c20.3 14.04 36.48 24.49 70.76 50.84m-.26-.34c3.99-20.28 8.35-36.17 11.3-69.68m-11.51 68.83c3.28-16.8 9-37.1 11.69-69.8m3.17 1.79c-27.83.73-63.47 7.15-83.17 18.22m79.87-22.67c-30.62 5.7-58.3 14.22-83.52 20.16m1.38.7s0 0 0 0m0 0s0 0 0 0"
            stroke="#1e1e1e" stroke-width="4" />
    </g>
    <g fill-rule="evenodd" fill="none" stroke-linecap="round">
        <path
            d="M327.04 169.1s0 0 0 0m0 0s0 0 0 0m-39.8 67.84c16.96-19.15 35.41-40.2 54.81-57.58m-52.76 55.86c14.14-14.96 24.21-25.02 51.1-56.5m-43.26 69.84c19.65-19.88 43.25-42.48 54.43-58.97m-51.27 59.76c9.73-14.32 26.74-28.37 50.72-59.18m-45.2 73.16c15.51-14.35 39.78-41.54 61.33-64.51m-61.64 65.69c20.54-21.22 43.72-48.14 59.92-64.12m-36.22 60.34c12.06-12.73 27.26-31.05 49.85-52.02m-50.25 54.51c12.66-16.86 26-32.03 48.57-52.94m-5.9 29.49c8.98-9.77 9.85-11.24 16-19.19m-15.92 16.91c4.57-5.23 8.74-9.48 15.41-16.2"
            stroke="#868e96" stroke-width="2" />
        <path
            d="M330.36 165.98c-10.39 13.72-21.63 28.32-44.26 63.37m42.4-58.58c-13.05 13.18-22.5 30.68-41.48 56.19m.86-1.09c6.14 15.28 8.67 26.25 20.21 48.56m-20.89-46.16c6.78 9.54 8.13 20.27 23.17 48.05m2.1-3.73c11.5-11.53 34.41-17.68 86-47.91m-90.85 48.18c21.8-6.98 37.33-17.99 86.46-47.37m5.05.81c-25.14-18.31-50.73-43.58-69.6-56.62m65.7 55.76c-27.37-20.63-54.75-45.02-68.02-55.8m-.17-.54s0 0 0 0m0 0s0 0 0 0"
            stroke="#343a40" stroke-width="4" />
    </g>
    <path
        d="M146.02 231.4c-16.99 26.4-31.75 53.22-50.25 80.88m48.65-80.74c-16.85 33.58-37.07 64.63-48.69 80.2m2.22 2.23c20.27 8.7 43.73 15.69 75.74 27.94m-75.04-30.1c15.06 6.82 36.13 14.94 76.6 31.17m-.92-3.02c34.8 5.14 64.83 3.08 81.07-.07m-77.08 2.27c14.01.8 30.2 1.93 82.08-.56m1.24 4.1c20.9-23.95 42.96-40.43 61.56-53.48m-64.96 52.55c16.67-17.37 35.22-30.62 62.58-55.06m-2.82.66c-5.08-13.46-18.08-28.6-30.69-62.12m32.3 63.4c-9.25-17.4-17.62-28.35-35.95-60.87m3.77-.3c-37.95 1.53-79.26 1.79-141.8 4.37m138.56-5.64c-32.36 4.23-60.55 5.03-138.92 4.83"
        stroke="#1e1e1e" stroke-width="4" fill="none" stroke-linecap="round" />
    <path
        d="M93.85 313.86c8.43 16.69 16.34 29.73 39.89 68.06m-37.34-68.5c11.4 25.6 23.83 51.05 33.16 65.75m-1.4 1.55c16.89 6.67 30.89 15.59 60.13 31.94m-59.96-32.91c24.64 13.08 43.12 24.11 64 35.26m1.02.23c16.7-2.38 26.86-5.69 58.59-7.76m-62.24 5.24c13.73.33 31.08-2 67.37-.3m1.14-3.63c14.46-13.47 30.5-27.79 42.85-46.83m-46.66 47.91c16.14-13.9 31.28-29.85 46.47-45.12m4.08-.61c4.04-25.78 15.99-54.42 14.82-73.37m-19.63 70.67c5.15-14.45 11.72-32.82 21.67-68.62M187.55 305.57c.8.03 1.86.38 2.6 1.05a7.51 7.51 0 0 1 1.85 2.98c.1.69-.61.64-1.17 1.2-.56.56-1.42 2-2.2 2.14-.76.14-1.64-.98-2.41-1.33-.78-.34-1.88-.1-2.23-.76-.34-.65 0-2.3.16-3.15.15-.85-.01-1.67.75-1.96.76-.3 3.15.22 3.83.2.68-.01.43-.21.26-.3m-2.16.12c.8-.2.96-.6 1.53-.3.57.3 1.25 1.47 1.9 2.06.66.6 1.93.66 2 1.52.09.86-.76 2.95-1.52 3.66-.76.7-2.16.66-3.04.6-.9-.05-1.46-.43-2.25-.93-.78-.51-2.27-1.41-2.5-2.11-.2-.7.6-1.32 1.22-2.11.62-.78 2.2-2.22 2.49-2.6.3-.37-.61.12-.73.35M249.48 304.28c.99.06 2.69 1.13 3.46 1.55.76.42.98.3 1.12 1 .14.7.07 2.6-.27 3.24-.35.64-.96.31-1.8.58-.81.27-2.3 1.26-3.14 1.06-.85-.2-1.35-1.5-1.92-2.29-.57-.78-1.62-1.79-1.5-2.43.13-.65 1.38-.99 2.25-1.44.86-.44 2.59-.97 2.94-1.24.36-.26-.61-.33-.8-.35m-1.65.23c.55-.22 1.57.4 2.6.64 1.04.25 2.97.02 3.6.83.64.8.5 3.02.2 4-.28.97-1.24 1.43-1.96 1.83a3.7 3.7 0 0 1-2.33.6c-1.01-.07-3-.5-3.71-.99s-.64-1.03-.57-1.92c.08-.9.58-2.68 1-3.44a2.6 2.6 0 0 1 1.54-1.13c.25-.05-.01.84-.05.81"
        stroke="#1e1e1e" stroke-width="4" fill="none" stroke-linecap="round" />
    <g stroke-linecap="round" fill="none">
        <path
            d="M141.24 122.87s0 0 0 0m0 0s0 0 0 0m-2.28 29.63c6.4-8.33 13.38-18.43 21.81-28.08m-21.98 26.46c6.71-10.1 15.5-17.96 22.83-26.63m-12 36.59c9.21-10.3 19.2-21.7 29.7-31.43m-28.67 30.57c7.68-8.21 13.26-13.87 27.83-30.9"
            stroke="#fff" stroke-width="2" />
        <path
            d="M155.07 118.4c4.53-.5 10.03.13 13.66 2.85 3.62 2.72 7.02 9.13 8.1 13.49a17.2 17.2 0 0 1-1.58 12.72c-2.2 3.97-7.25 9.37-11.59 11.1-4.34 1.75-9.85.94-14.46-.67-4.6-1.6-10.65-5.3-13.14-8.96-2.48-3.66-2.64-8.66-1.75-13.04.9-4.38 3.71-10.03 7.12-13.24 3.4-3.2 10.93-5.05 13.32-5.97 2.38-.92.97-.14.98.45m-1.8.52c4.76-.37 12.38.55 16.31 3.62 3.94 3.08 6.61 10.04 7.3 14.83.68 4.78-.84 10.04-3.18 13.87-2.33 3.83-6.25 7.59-10.82 9.1-4.56 1.52-12.07 1.48-16.55 0a18.07 18.07 0 0 1-10.38-8.85c-2.08-4.11-2.8-11.14-2.1-15.77.7-4.62 2.96-9.36 6.32-11.98 3.36-2.62 11.63-2.88 13.86-3.76 2.23-.88-.6-1.71-.48-1.5"
            stroke="#1e1e1e" stroke-width="4" />
    </g>
    <g stroke-linecap="round">
        <path
            d="M284.83 113.06c4.45 1.2 8.44 5.32 10.93 9.07 2.49 3.74 4.83 9.1 3.99 13.4-.84 4.32-5.15 9.44-9.03 12.5-3.9 3.03-9.66 5.73-14.28 5.76-4.63.03-9.66-2.59-13.47-5.58-3.8-2.99-8.5-8.06-9.38-12.37-.9-4.3 1.49-9.65 4-13.49 2.53-3.85 6.2-8.32 11.15-9.6 4.94-1.28 14.73 1.3 18.5 1.93 3.78.65 4.14 1.72 4.15 1.95m-16.33-6.08c4.72-.55 11.24 3.1 15.16 5.7 3.92 2.58 7.44 5.54 8.38 9.84.93 4.3-.8 11.52-2.8 15.91-2 4.4-5.08 8.48-9.23 10.43-4.15 1.94-10.93 2.28-15.68 1.23-4.75-1.04-9.81-3.87-12.84-7.5-3.04-3.62-5.6-9.68-5.38-14.24.22-4.55 3.1-9.72 6.7-13.1 3.59-3.38 12.12-6.06 14.83-7.18 2.7-1.12 1.5.01 1.44.46"
            fill="#fff" />
        <path
            d="M274.55 111.02c4.52-.74 11.1 2.38 15.23 4.9 4.13 2.53 8.2 5.9 9.5 10.26 1.3 4.37.32 11.75-1.71 15.94-2.02 4.2-5.9 7.43-10.43 9.18-4.55 1.75-12.13 2.28-16.84 1.3a18.66 18.66 0 0 1-11.45-7.17c-2.58-3.6-4.17-9.78-4.03-14.5.13-4.7 1.48-10.43 4.84-13.78 3.37-3.34 12.5-5.56 15.33-6.3 2.83-.74 1.46 1.48 1.63 1.85m-2.9-1.86c4.86-.84 11.03 2.25 15.1 4.86 4.09 2.61 7.72 6.61 9.38 10.8 1.66 4.18 2.43 10.1.6 14.33-1.84 4.24-7.31 8.75-11.62 11.1-4.3 2.32-9.68 3.9-14.21 2.9-4.52-.98-9.71-5.17-12.93-8.82-3.23-3.66-6.22-8.87-6.43-13.13-.21-4.26 2.15-8.85 5.15-12.44 3-3.6 10.52-7.87 12.88-9.14 2.35-1.27.89 1.15 1.27 1.52"
            stroke="#1e1e1e" stroke-width="4" fill="none" />
    </g>
    <path
        d="M144.52 153.15c7.12-10.16 15.57-14.48 27.5-27.17m-28.97 24.67c8.88-6.97 19-14.92 26.98-23.7m-1.47 2.1c-4.38 3.53-10.83 9.44-24.39 29.11m26.26-29.65c-5.27 6.6-12.25 13.07-26.32 29.17m.01-1.68c12.1-9.6 20.12-17.09 31.21-24.5m-30.69 24.88c7.45-5.94 15.73-13.85 30.32-25.19m-1.2-.9c-3.58 4.73-12.14 11.34-20.83 27.07m22.22-26.14c-7.63 8.25-14.85 15.73-23.7 26.43m1.35.25c4.87-8.09 14.17-11.84 21.21-17.82m-23.35 18.08c7.41-5.97 15.2-12.44 23.21-18m-2.66.58c-.06 1.75-4.57 8.94-10.45 16.28m11.98-17.28c-5.27 7.14-9.53 13.92-13.3 18.22m1.33-.95c.7-1.9 6.47-3.2 10.22-8.8m-11.57 9.11c3.43-1.97 8.47-6.45 12.87-9.98M260.8 144.15c9.18-5.66 19-16.59 31.74-25.6m-32.41 27.67c12.91-10.47 24.07-22.78 30.76-29.9m.83-.42c-6.86 6.46-11.84 16.35-28.71 33.6m29.33-31.62c-11.41 12.01-21.11 24.08-27.35 30.16m1.2-1.23c5.36-5.6 14.76-11.97 27.25-27M264.53 149c11.17-11.17 22.23-20.33 29.11-28.86m1.75-1.08c-9.17 6.95-12.1 15.37-26.99 31.1m25.8-28.59c-6.87 7.23-13.91 15.44-25.61 28.36m-1.76-.99c11.92-6.56 22.13-15.63 30.42-22.96m-29.84 25.33c11.6-10.08 23.27-19.3 28.52-24.7m1.83-2.16c-7.29 9.61-11.69 14.14-22.65 27.91m20.94-25.95c-4.29 5.8-9.82 11.42-22.9 26.92m-.94-1.07c8.87-3.35 11.8-9.16 24.98-19.18m-24.3 20.38c7.18-6.47 13.11-11.57 24.39-22.13m-2 1.43c-3.42 3.9-8.45 13.08-17.12 19.6m17.62-20.72c-4.18 4.8-7.81 11-17.48 22.98m-1.72-.86c6.24-5.45 14.59-9.83 19.05-15.77m-16.65 15.46c3.66-3.15 8.82-8.04 15.5-15.14m-.55-.17a73.15 73.15 0 0 0-6.85 13.02m7.53-12.14c-2.16 4.56-4.47 7.25-8.79 12.3"
        stroke="#1e1e1e" stroke-width="4" fill="none" stroke-linecap="round" />
</svg>